# xmcd
#
# Track frame offsets:
# 150
# 12962
# 23613
# 38911
# 52992
# 71364
# 82840
# 95027
# 111107
# 129739
# 141861
# 155921
# 169142
#
# Disc length: 2585 seconds
#
#
# Revision: 0
# Processed by: cddbd v1.5.2PL0 Copyright (c) Steve Scherf et al.
# Submitted via: Nero 7, 11, 10, 0 
#
DISCID=a70a170d
DTITLE=Paul deLay Band - American Voodoo
DYEAR=1988
DGENRE=Blues
TTITLE0=Mine All Mine
TTITLE1=Harpoon Man
TTITLE2=Get Yourself Another Fool
TTITLE3=Heartbreaker
TTITLE4=Cry To Me
TTITLE5=Sho' Miss You Baby
TTITLE6=Don't Drink
TTITLE7=Signed, Sealed And Delivered
TTITLE8=Turn Your Light Down Low
TTITLE9=Rode Myself Crazy
TTITLE10=Comin' Down With The Blues
TTITLE11=Everynight
TTITLE12=This Ol' Life
EXTD=
EXTT0=Mine All Mine
EXTT1=Harpoon Man
EXTT2=Get Yourself Another Fool
EXTT3=Heartbreaker
EXTT4=Cry To Me
EXTT5=Sho' Miss You Baby
EXTT6=Don't Drink
EXTT7=Signed, Sealed And Delivered
EXTT8=Turn Your Light Down Low
EXTT9=Rode Myself Crazy
EXTT10=Comin' Down With The Blues
EXTT11=Everynight
EXTT12=This Ol' Life
PLAYORDER=
